<svg width="2163" height="743" viewBox="0 0 2163 743" fill="none" xmlns="http://www.w3.org/2000/svg">
<path d="M835.444 320.665L934.244 63.065H1013.84L1112.64 320.665H1034.24L1012.64 265.865H935.044L913.844 320.665H835.444ZM945.044 211.865H1002.64L973.844 136.265L945.044 211.865ZM1140.71 320.665V63.065H1215.91V263.065H1331.91V320.665H1140.71ZM1352.04 320.665V63.065H1427.24V263.065H1543.24V320.665H1352.04Z" fill="#879BFC"/>
<path d="M1563.37 320.665V63.065H1636.57L1700.57 193.865L1764.17 63.065H1836.97V320.665H1761.77V191.865L1720.57 276.665H1680.17L1638.57 191.865V320.665H1563.37ZM1950.12 320.665V226.265L1857.32 63.065H1935.72L1987.72 160.265L2039.72 63.065H2118.12L2025.32 226.265V320.665H1950.12Z" fill="#5E79FC"/>
<path d="M899.844 630.665V429.065H827.444V373.065H1047.44V429.065H975.044V630.665H899.844ZM1025.29 630.665L1124.09 373.065H1203.69L1302.49 630.665H1224.09L1202.49 575.865H1124.89L1103.69 630.665H1025.29ZM1134.89 521.865H1192.49L1163.69 446.265L1134.89 521.865ZM1330.55 630.665V373.065H1472.15C1498.29 373.065 1518.15 379.198 1531.75 391.465C1545.35 403.732 1552.15 421.332 1552.15 444.265C1552.15 457.598 1549.62 468.798 1544.55 477.865C1539.75 486.932 1533.35 494.132 1525.35 499.465C1536.29 503.732 1544.95 509.998 1551.35 518.265C1558.02 526.265 1561.35 538.265 1561.35 554.265C1561.35 578.532 1553.89 597.332 1538.95 610.665C1524.02 623.998 1502.82 630.665 1475.35 630.665H1330.55ZM1402.95 475.865H1451.75C1470.15 475.865 1479.35 467.598 1479.35 451.065C1479.35 442.798 1477.09 436.532 1472.55 432.265C1468.29 427.998 1460.69 425.865 1449.75 425.865H1402.95V475.865ZM1402.95 578.265H1454.95C1465.09 578.265 1472.55 576.132 1477.35 571.865C1482.15 567.598 1484.55 560.532 1484.55 550.665C1484.55 542.398 1482.15 536.132 1477.35 531.865C1472.55 527.598 1464.55 525.465 1453.35 525.465H1402.95V578.265Z" fill="#3A5BFF"/>
<path d="M1577.79 630.665V596.915H1614.79V630.665H1577.79ZM1697.1 633.165C1675.6 633.165 1658.6 628.082 1646.1 617.915C1633.6 607.582 1627.35 592.082 1627.35 571.415C1627.35 557.415 1630.27 545.832 1636.1 536.665C1641.93 527.498 1650.1 520.748 1660.6 516.415C1671.1 511.915 1683.35 509.665 1697.35 509.665C1706.18 509.665 1714.1 510.332 1721.1 511.665C1728.1 512.832 1734.77 514.915 1741.1 517.915V550.915C1731.27 546.248 1720.1 543.915 1707.6 543.915C1696.93 543.915 1688.85 545.915 1683.35 549.915C1678.02 553.915 1675.35 561.082 1675.35 571.415C1675.35 581.082 1677.93 588.082 1683.1 592.415C1688.27 596.748 1696.43 598.915 1707.6 598.915C1713.6 598.915 1719.43 598.248 1725.1 596.915C1730.77 595.415 1736.18 593.332 1741.35 590.665V625.165C1735.02 627.998 1728.18 629.998 1720.85 631.165C1713.68 632.498 1705.77 633.165 1697.1 633.165ZM1823.06 633.165C1799.4 633.165 1781.9 627.915 1770.56 617.415C1759.4 606.915 1753.81 591.582 1753.81 571.415C1753.81 551.415 1759.48 536.165 1770.81 525.665C1782.15 514.998 1799.56 509.665 1823.06 509.665C1846.73 509.665 1864.23 514.998 1875.56 525.665C1887.06 536.165 1892.81 551.415 1892.81 571.415C1892.81 591.582 1887.15 606.915 1875.81 617.415C1864.48 627.915 1846.9 633.165 1823.06 633.165ZM1823.06 598.915C1830.73 598.915 1836.23 596.748 1839.56 592.415C1843.06 588.082 1844.81 581.082 1844.81 571.415C1844.81 561.915 1843.06 554.998 1839.56 550.665C1836.23 546.165 1830.73 543.915 1823.06 543.915C1815.56 543.915 1810.15 546.165 1806.81 550.665C1803.48 554.998 1801.81 561.915 1801.81 571.415C1801.81 581.082 1803.48 588.082 1806.81 592.415C1810.15 596.748 1815.56 598.915 1823.06 598.915ZM1910.42 630.665V512.165H1953.92L1955.17 521.665C1960.34 518.165 1966.09 515.332 1972.42 513.165C1978.92 510.832 1986.01 509.665 1993.67 509.665C2001.34 509.665 2007.34 510.748 2011.67 512.915C2016.01 515.082 2019.51 518.248 2022.17 522.415C2027.51 518.582 2033.51 515.498 2040.17 513.165C2047.01 510.832 2055.01 509.665 2064.17 509.665C2078.01 509.665 2088.17 513.332 2094.67 520.665C2101.17 527.832 2104.42 538.832 2104.42 553.665V630.665H2058.17V559.165C2058.17 553.832 2057.09 550.082 2054.92 547.915C2052.76 545.582 2049.17 544.415 2044.17 544.415C2037.67 544.415 2032.34 546.748 2028.17 551.415C2028.51 553.582 2028.67 555.665 2028.67 557.665C2028.67 559.498 2028.67 561.582 2028.67 563.915V630.665H1985.17V558.415C1985.17 553.582 1984.34 550.082 1982.67 547.915C1981.01 545.582 1977.84 544.415 1973.17 544.415C1970.01 544.415 1966.92 545.248 1963.92 546.915C1960.92 548.582 1958.26 550.582 1955.92 552.915V630.665H1910.42Z" fill="#BEC9FF"/>
<rect x="0.576416" y="0.923828" width="641.647" height="639.233" rx="81" fill="#3A5BFF"/>
<g filter="url(#filter0_d_57_99)">
<rect x="93.6304" y="85.0381" width="606.543" height="606.543" rx="81" fill="#5E79FC"/>
</g>
<g filter="url(#filter1_d_57_99)">
<rect x="209.018" y="180.254" width="526.799" height="530.197" rx="81" fill="#879BFC"/>
</g>
<defs>
<filter id="filter0_d_57_99" x="65.6304" y="61.0381" width="662.543" height="662.543" filterUnits="userSpaceOnUse" color-interpolation-filters="sRGB">
<feFlood flood-opacity="0" result="BackgroundImageFix"/>
<feColorMatrix in="SourceAlpha" type="matrix" values="0 0 0 0 0 0 0 0 0 0 0 0 0 0 0 0 0 0 127 0" result="hardAlpha"/>
<feOffset dy="4"/>
<feGaussianBlur stdDeviation="14"/>
<feComposite in2="hardAlpha" operator="out"/>
<feColorMatrix type="matrix" values="0 0 0 0 0 0 0 0 0 0 0 0 0 0 0 0 0 0 0.1 0"/>
<feBlend mode="normal" in2="BackgroundImageFix" result="effect1_dropShadow_57_99"/>
<feBlend mode="normal" in="SourceGraphic" in2="effect1_dropShadow_57_99" result="shape"/>
</filter>
<filter id="filter1_d_57_99" x="181.018" y="156.254" width="582.799" height="586.197" filterUnits="userSpaceOnUse" color-interpolation-filters="sRGB">
<feFlood flood-opacity="0" result="BackgroundImageFix"/>
<feColorMatrix in="SourceAlpha" type="matrix" values="0 0 0 0 0 0 0 0 0 0 0 0 0 0 0 0 0 0 127 0" result="hardAlpha"/>
<feOffset dy="4"/>
<feGaussianBlur stdDeviation="14"/>
<feComposite in2="hardAlpha" operator="out"/>
<feColorMatrix type="matrix" values="0 0 0 0 0 0 0 0 0 0 0 0 0 0 0 0 0 0 0.1 0"/>
<feBlend mode="normal" in2="BackgroundImageFix" result="effect1_dropShadow_57_99"/>
<feBlend mode="normal" in="SourceGraphic" in2="effect1_dropShadow_57_99" result="shape"/>
</filter>
</defs>
</svg>
